<svg id="Layer_1" data-name="Layer 1" xmlns="http://www.w3.org/2000/svg" xmlns:xlink="http://www.w3.org/1999/xlink" viewBox="0 0 145.4 145.4"><defs><style>.cls-1,.cls-2{stroke:#010101;}.cls-1{stroke-width:0.5px;fill:url(#linear-gradient);}.cls-2{fill:#fff6f0;}.cls-3{fill:#2b363b;}</style><linearGradient id="linear-gradient" x1="72.14" y1="146" x2="72.14" y2="1.1" gradientTransform="matrix(1, 0, 0, -1, 0, 146)" gradientUnits="userSpaceOnUse"><stop offset="0" stop-color="#99b998"/><stop offset="1" stop-color="#fdceab"/></linearGradient></defs><path class="cls-1" d="M72.14,144.9A72.45,72.45,0,1,0-.31,72.45,72.45,72.45,0,0,0,72.14,144.9Z" transform="translate(0.56 0.25)"/><path class="cls-2" d="M23.23,59.46,72.14,10.87,121,59.46,97,83.3,72.61,59l-.44-.44-.44.44L47.28,83.32Z" transform="translate(0.56 0.25)"/><path class="cls-3" d="M34,90.92H53.26V96.4H39.78v6.95h13v5.48h-13v7h14v5.48H34Zm47.31,0v19.91q0,5.22-2.78,8.17t-8.17,3c-3.63,0-6.36-1-8.22-3s-2.74-4.69-2.74-8.17V90.92h5.74v19.91a6.44,6.44,0,0,0,1.26,4.22,4.86,4.86,0,0,0,4,1.52,4.86,4.86,0,0,0,3.95-1.52,6.44,6.44,0,0,0,1.26-4.22V90.92Zm26,30.43h-5.74v-9.13a2.47,2.47,0,0,0-.57-1.69,2.13,2.13,0,0,0-1.78-.65H92.62v11.47H86.89V90.92H98.54a12,12,0,0,1,4.12.65,8.08,8.08,0,0,1,3,1.83,7.34,7.34,0,0,1,1.83,2.65,8.29,8.29,0,0,1,.65,3.26v1a6.66,6.66,0,0,1-1,3.52,6.41,6.41,0,0,1-3.09,2.47v.79a3.51,3.51,0,0,1,2.39,1.17,3.6,3.6,0,0,1,.92,2.52ZM92.62,104.4H98.1a4.64,4.64,0,0,0,3.17-1,3.56,3.56,0,0,0,1.09-2.78v-.52a3.53,3.53,0,0,0-1.09-2.61A4.2,4.2,0,0,0,98.1,96.4H92.62Z" transform="translate(0.56 0.25)"/></svg>